<?xml version="1.0" encoding="UTF-8"?>
<svg id="Layer_1" xmlns="http://www.w3.org/2000/svg" version="1.1" viewBox="0 0 800 800">
  <!-- Generator: Adobe Illustrator 29.6.0, SVG Export Plug-In . SVG Version: 2.1.1 Build 207)  -->
  <defs>
    <style>
      .st0 {
        fill: #fff;
      }
    </style>
  </defs>
  <g id="_xD83D__xDD0D_-Product-Icons">
    <g id="ic_fluent_movies_and_tv_24_regular">
      <path id="_xD83C__xDFA8_-Color" class="st0" d="M657.62,130.57l1.7,5.32,18.38,64.08c3.49,12.17-2.67,24.81-13.94,29.77l-3.2,1.15-357.56,102.5,371.97.03c12.66,0,23.12,9.41,24.77,21.61l.23,3.39v283.27c0,48.75-38.06,88.61-86.08,91.5l-5.58.17H191.67c-48.75,0-88.61-38.06-91.5-86.08l-.17-5.58v-279.73s-17.4-60.7-17.4-60.7c-13.44-46.86,12.16-95.67,57.53-111.68l5.32-1.7,400.49-114.84c46.86-13.44,95.67,12.16,111.68,57.53ZM649.93,383.4H150v258.3c0,20.14,14.28,36.93,33.27,40.82l4.14.63,4.26.22h416.63c21.57,0,39.32-16.4,41.45-37.41l.22-4.26-.03-258.3ZM209.09,221.65l-49.86,14.3c-20.74,5.95-33.28,26.6-29.54,47.38l.97,4.15,11.48,40.03,9.84-2.83,57.11-103.03ZM367.63,176.19l-90.58,25.97-57.11,103.03,90.58-25.97,57.11-103.03ZM526.21,130.71l-90.58,25.97-57.11,103.03,90.55-25.97,57.14-103.04ZM587.78,122.93l-50.69,91.32,85.62-24.54-11.45-40.04c-3.57-12.46-12.45-21.96-23.48-26.74Z"/>
    </g>
  </g>
</svg>