<?xml version="1.0" encoding="UTF-8"?>
<svg id="Layer_1" xmlns="http://www.w3.org/2000/svg" version="1.1" viewBox="0 0 800 800">
  <!-- Generator: Adobe Illustrator 29.6.0, SVG Export Plug-In . SVG Version: 2.1.1 Build 207)  -->
  <defs>
    <style>
      .st0 {
        fill: #fff;
      }

      .st1 {
        fill: none;
        stroke: #fff;
        stroke-linecap: round;
        stroke-linejoin: round;
        stroke-width: 48px;
      }
    </style>
  </defs>
  <path class="st1" d="M344.61,576h110.78c48.03.89,87.7-37.31,88.61-85.34v-85.31c-.91-48.03-40.58-86.24-88.61-85.34h-110.78c-48.03-.89-87.7,37.31-88.61,85.34v85.34c.93,48.02,40.59,86.2,88.61,85.31Z"/>
  <path class="st0" d="M324.78,132c-6.63-11.48-21.3-15.41-32.78-8.78-11.48,6.63-15.41,21.31-8.79,32.78l41.57-24ZM338.64,252c6.63,11.48,21.31,15.41,32.78,8.78,11.48-6.63,15.41-21.31,8.78-32.78l-41.57,24ZM516.78,156c6.63-11.48,2.69-26.16-8.78-32.78-11.48-6.63-26.16-2.69-32.78,8.78l41.57,24ZM419.79,228c-6.63,11.48-2.69,26.16,8.78,32.78,11.48,6.63,26.16,2.69,32.78-8.78l-41.57-24ZM440.58,216c-13.25,0-24,10.75-24,24s10.75,24,24,24v-48ZM486.14,240l.07-24h-.07v24ZM624,378.66l-24-.07v.07h24ZM624,517.31h-24v.07l24-.07ZM583.8,615.21l-17.02-16.92,17.02,16.92ZM486.14,656v24h.07l-.07-24ZM313.86,656l-.07,24h.07v-24ZM176,517.34l24,.07v-.07h-24ZM176,378.66h24v-.07s-24,.07-24,.07ZM313.86,240v-24h-.07l.07,24ZM359.42,264c13.25,0,24-10.75,24-24s-10.75-24-24-24v48ZM440.58,264c13.25,0,24-10.75,24-24s-10.75-24-24-24v48ZM359.42,216c-13.25,0-24,10.75-24,24s10.75,24,24,24v-48ZM283.22,156l55.42,96,41.57-24-55.42-96-41.57,24ZM475.22,132l-55.42,96,41.57,24,55.42-96-41.57-24ZM440.58,264h45.57v-48h-45.57v48ZM486.07,264c63.1.19,114.1,51.49,113.93,114.59l48,.13c.25-89.61-72.18-162.45-161.78-162.72l-.14,48ZM600,378.66v138.66h48v-138.66h-48ZM600,517.39c.09,30.3-11.86,59.41-33.23,80.9l34.04,33.84c30.34-30.52,47.32-71.85,47.18-114.89l-48,.15ZM566.77,598.29c-21.37,21.49-50.39,33.62-80.7,33.71l.14,48c43.04-.13,84.26-17.35,114.6-47.87l-34.04-33.84ZM486.14,632h-172.29v48h172.29v-48ZM313.93,632c-63.1-.19-114.1-51.49-113.93-114.59l-48-.13c-.25,89.61,72.18,162.45,161.78,162.72l.14-48ZM200,517.34v-138.69h-48v138.69h48ZM200,378.59c-.18-63.1,50.83-114.4,113.93-114.59l-.14-48c-89.61.27-162.03,73.12-161.78,162.72l48-.13ZM313.86,264h45.57v-48h-45.57v48ZM440.58,216h-81.15v48h81.15v-48Z"/>
</svg>